<?xml version="1.0" encoding="utf-8"?>
<!-- Generator: Adobe Illustrator 21.0.0, SVG Export Plug-In . SVG Version: 6.00 Build 0)  -->
<svg version="1.1" id="katman_1" xmlns="http://www.w3.org/2000/svg" xmlns:xlink="http://www.w3.org/1999/xlink" x="0px" y="0px"
	 viewBox="0 0 82 19" style="enable-background:new 0 0 82 19;" xml:space="preserve">
<style type="text/css">
	.st0{fill:#181C32;}
	.st1{font-family:'SnellRoundhand';}
	.st2{font-size:17px;}
</style>
<path class="st0" d="M6.7-5.6c-1.3,0-2.4-0.2-3.3-0.6C2.5-6.5,1.9-7,1.5-7.5C1.1-8,0.9-8.4,0.9-8.8C0.9-9,0.9-9.1,1-9.2
	c0.1-0.1,0.3-0.2,0.4-0.2h2.7c0.1,0,0.2,0,0.3,0.1C4.6-9.1,4.8-9,4.9-9c0.4,0.3,0.7,0.4,0.9,0.6c0.3,0.1,0.6,0.2,1,0.2
	c0.5,0,0.8-0.1,1.1-0.3c0.3-0.2,0.5-0.5,0.5-0.8c0-0.3-0.1-0.5-0.2-0.6c-0.1-0.2-0.4-0.3-0.9-0.5c-0.4-0.2-1.1-0.3-2-0.5
	c-1.3-0.3-2.4-0.7-3.1-1.3c-0.7-0.6-1.1-1.5-1.1-2.5c0-0.7,0.2-1.3,0.6-1.9c0.4-0.6,1-1.1,1.8-1.4c0.8-0.4,1.8-0.6,3-0.6
	s2.1,0.2,3,0.5c0.8,0.4,1.5,0.8,1.9,1.3c0.4,0.5,0.7,1,0.7,1.4c0,0.1-0.1,0.3-0.2,0.4c-0.1,0.1-0.2,0.2-0.4,0.2H9.1
	c-0.1,0-0.2,0-0.4-0.1c-0.2-0.1-0.4-0.2-0.6-0.4c-0.3-0.2-0.5-0.4-0.8-0.5c-0.2-0.1-0.5-0.2-0.9-0.2c-0.4,0-0.8,0.1-1,0.3
	c-0.2,0.2-0.4,0.4-0.4,0.7c0,0.2,0.1,0.4,0.2,0.6c0.1,0.2,0.4,0.3,0.9,0.5c0.4,0.1,1.1,0.3,2,0.5c1.6,0.3,2.7,0.8,3.4,1.4
	c0.7,0.7,1.1,1.5,1.1,2.4c0,1.2-0.5,2.1-1.6,2.9C10-5.9,8.6-5.6,6.7-5.6z M21.1-5.8c-3.3,0-5-1.6-5-4.7v-4.6h-1.9
	c-0.2,0-0.3-0.1-0.5-0.2c-0.1-0.1-0.2-0.3-0.2-0.4v-1.9c0-0.2,0.1-0.3,0.2-0.4c0.1-0.1,0.3-0.2,0.5-0.2h1.9v-4
	c0-0.2,0.1-0.3,0.2-0.4c0.1-0.1,0.3-0.2,0.4-0.2h2.8c0.2,0,0.3,0.1,0.4,0.2s0.2,0.3,0.2,0.4v4h3c0.2,0,0.3,0.1,0.4,0.2
	c0.1,0.1,0.2,0.3,0.2,0.4v1.9c0,0.2-0.1,0.3-0.2,0.4c-0.1,0.1-0.3,0.2-0.4,0.2h-3v4.3c0,1.2,0.5,1.8,1.4,1.8h1.8
	c0.2,0,0.3,0.1,0.4,0.2c0.1,0.1,0.2,0.3,0.2,0.4v2.1c0,0.2-0.1,0.3-0.2,0.4c-0.1,0.1-0.3,0.2-0.4,0.2H21.1z M30.5-5.6
	c-1.4,0-2.5-0.5-3.4-1.4c-0.9-1-1.3-2.3-1.3-4v-6.7c0-0.2,0.1-0.3,0.2-0.4c0.1-0.1,0.3-0.2,0.4-0.2h3c0.2,0,0.3,0.1,0.4,0.2
	C30-18,30-17.9,30-17.7v6.6c0,1.6,0.7,2.4,2.1,2.4c0.7,0,1.2-0.2,1.6-0.6c0.4-0.4,0.6-1,0.6-1.7v-6.6c0-0.2,0.1-0.3,0.2-0.4
	c0.1-0.1,0.3-0.2,0.4-0.2h3c0.2,0,0.3,0.1,0.4,0.2c0.1,0.1,0.2,0.3,0.2,0.4v11.3c0,0.2-0.1,0.3-0.2,0.4c-0.1,0.1-0.3,0.2-0.4,0.2
	h-2.8c-0.2,0-0.3-0.1-0.4-0.2c-0.1-0.1-0.2-0.3-0.2-0.4v-0.9C33.7-6.2,32.3-5.6,30.5-5.6z M46-5.6c-1.6,0-2.8-0.5-3.7-1.5
	c-0.9-1-1.3-2.4-1.4-4.2l0-0.8l0-0.9c0.1-1.7,0.5-3.1,1.4-4.1c0.9-1,2.1-1.5,3.7-1.5c1.5,0,2.6,0.5,3.5,1.4v-5.1
	c0-0.2,0.1-0.3,0.2-0.4s0.3-0.2,0.4-0.2H53c0.2,0,0.3,0.1,0.4,0.2s0.2,0.3,0.2,0.4v15.8c0,0.2-0.1,0.3-0.2,0.4
	c-0.1,0.1-0.3,0.2-0.4,0.2h-2.7c-0.2,0-0.3-0.1-0.4-0.2c-0.1-0.1-0.2-0.3-0.2-0.4v-0.8C48.8-6.1,47.6-5.6,46-5.6z M47.3-8.8
	c0.7,0,1.3-0.2,1.6-0.7c0.4-0.5,0.6-1.1,0.6-1.8c0-0.2,0-0.5,0-0.9c0-0.4,0-0.7,0-0.9c0-0.7-0.2-1.2-0.6-1.6s-0.9-0.6-1.6-0.6
	c-0.8,0-1.3,0.2-1.6,0.7c-0.3,0.4-0.5,1.1-0.6,1.8c0,0.2,0,0.4,0,0.7c0,0.3,0,0.6,0,0.7c0,0.8,0.2,1.4,0.6,1.8
	C46-9,46.5-8.8,47.3-8.8z M57-20.1c-0.2,0-0.3-0.1-0.4-0.2c-0.1-0.1-0.2-0.3-0.2-0.4v-2.2c0-0.2,0.1-0.3,0.2-0.4s0.3-0.2,0.4-0.2
	h2.9c0.2,0,0.3,0.1,0.4,0.2s0.2,0.3,0.2,0.4v2.2c0,0.2-0.1,0.3-0.2,0.4c-0.1,0.1-0.3,0.2-0.4,0.2H57z M57.1-5.8
	c-0.2,0-0.3-0.1-0.4-0.2c-0.1-0.1-0.2-0.3-0.2-0.4v-11.3c0-0.2,0.1-0.3,0.2-0.4c0.1-0.1,0.3-0.2,0.4-0.2h2.8c0.2,0,0.3,0.1,0.4,0.2
	c0.1,0.1,0.2,0.3,0.2,0.4v11.3c0,0.2-0.1,0.3-0.2,0.4c-0.1,0.1-0.3,0.2-0.4,0.2H57.1z M69.2-5.6c-2,0-3.5-0.5-4.6-1.4
	C63.6-8,63-9.3,62.9-11c0-0.2,0-0.6,0-1.1s0-0.9,0-1.1c0.1-1.7,0.7-3,1.8-4c1.1-1,2.6-1.4,4.5-1.4c1.9,0,3.5,0.5,4.6,1.4
	c1.1,0.9,1.7,2.3,1.8,4c0,0.2,0,0.6,0,1.1s0,0.9,0,1.1c-0.1,1.7-0.7,3-1.8,4C72.8-6.1,71.2-5.6,69.2-5.6z M69.2-8.5
	c0.7,0,1.2-0.2,1.6-0.6c0.3-0.4,0.5-1.1,0.6-2c0-0.2,0-0.5,0-1c0-0.5,0-0.8,0-1c0-0.9-0.2-1.5-0.6-1.9c-0.3-0.4-0.8-0.6-1.5-0.6
	c-1.3,0-2,0.9-2.1,2.6l0,1l0,1c0,0.9,0.2,1.5,0.6,2C68-8.7,68.5-8.5,69.2-8.5z M78.4-5.8c-0.2,0-0.3-0.1-0.4-0.2
	c-0.1-0.1-0.2-0.3-0.2-0.4v-3c0-0.2,0.1-0.3,0.2-0.4c0.1-0.1,0.3-0.2,0.4-0.2h3c0.2,0,0.3,0.1,0.4,0.2C81.9-9.8,82-9.7,82-9.5v3
	c0,0.2-0.1,0.3-0.2,0.4c-0.1,0.1-0.3,0.2-0.4,0.2H78.4z"/>
<text transform="matrix(1 0 0 1 2.0305 13.125)" class="st1 st2">tuğçe panel.</text>
</svg>
